<svg version="1.1" id="Layer_1" xmlns="http://www.w3.org/2000/svg" xmlns:xlink="http://www.w3.org/1999/xlink" x="0px" y="0px"
	 width="100%" viewBox="0 0 500 500" enable-background="new 0 0 500 500" xml:space="preserve">
<path fill="#000000" opacity="1.000000" stroke="none" 
	d="
M1.000002,165.000000 
	C1.000000,110.345436 1.000000,55.690868 1.000000,1.018152 
	C167.617661,1.018152 334.235321,1.018152 500.926514,1.018152 
	C500.926514,167.580734 500.926514,334.161530 500.926514,500.871155 
	C334.456207,500.871155 167.912292,500.871155 1.000000,500.871155 
	C1.000000,405.311005 1.000000,309.621521 1.368040,213.199219 
	C2.834030,218.187714 3.961889,223.903534 5.024661,229.631424 
	C9.214459,252.212692 16.996004,273.527649 28.699652,293.235016 
	C35.469433,304.634430 43.001560,315.634918 50.875790,326.309509 
	C58.803455,337.056580 67.122147,347.595245 76.117226,357.451538 
	C84.544846,366.686066 93.911827,375.095123 103.177734,383.524139 
	C113.119919,392.568359 123.136093,401.576080 133.637238,409.951172 
	C152.478836,424.978149 171.383301,439.966339 190.878906,454.120300 
	C205.913544,465.035522 221.815552,474.771118 237.504761,484.759705 
	C241.701614,487.431671 246.396057,488.525330 251.318481,485.388672 
	C257.151947,481.671417 263.490417,478.730133 269.229706,474.884888 
	C284.658356,464.548035 300.117676,454.228790 315.119659,443.291901 
	C327.853760,434.008392 340.122437,424.062622 352.310699,414.060944 
	C364.118896,404.371155 375.954498,394.652649 387.057343,384.182495 
	C398.644806,373.255371 409.585205,361.613129 420.402344,349.908112 
	C427.946808,341.744385 435.377289,333.357269 441.843597,324.341888 
	C452.459198,309.541626 462.964935,294.476044 469.670898,277.425415 
	C475.437469,262.763306 481.054993,247.859848 484.615295,232.568771 
	C487.639008,219.582428 488.669006,205.890839 488.675446,192.510376 
	C488.681976,178.970230 486.507446,165.411209 484.997253,151.892960 
	C483.313965,136.825226 478.148102,122.567345 471.432648,109.297600 
	C458.932922,84.598099 441.950409,63.640747 417.269287,49.436493 
	C403.544464,41.537697 389.376617,35.411781 374.019012,32.027332 
	C367.480713,30.586460 360.759918,29.973965 353.917053,28.588774 
	C346.926392,28.121849 340.140198,27.978218 333.355438,28.029032 
	C331.538086,28.042643 329.725159,28.649454 327.473389,28.984539 
	C322.510498,29.644316 317.999756,30.445135 313.455658,30.937941 
	C294.623291,32.980278 277.878113,40.664551 261.805878,50.069733 
	C251.811569,55.918224 241.676865,56.809902 231.251923,51.645401 
	C224.788773,48.443581 218.609970,44.650600 212.075500,41.613598 
	C198.508728,35.308208 184.195847,31.291426 169.291077,30.136415 
	C157.540283,29.225813 145.700241,28.794905 133.925308,29.108171 
	C126.316391,29.310602 118.625618,30.709938 111.195427,32.501518 
	C93.610535,36.741619 77.418274,44.446152 62.786934,54.963902 
	C48.882790,64.958908 37.499130,77.360802 28.168102,91.990501 
	C14.350165,113.655014 6.474773,137.139496 2.962205,162.353149 
	C2.829179,163.308029 1.677171,164.120941 1.000002,165.000000 
z"/>
<path fill="#9CA0AA" opacity="1.000000" stroke="none" 
	d="
M1.000002,165.468658 
	C1.677171,164.120941 2.829179,163.308029 2.962205,162.353149 
	C6.474773,137.139496 14.350165,113.655014 28.168102,91.990501 
	C37.499130,77.360802 48.882790,64.958908 62.786934,54.963902 
	C77.418274,44.446152 93.610535,36.741619 111.195427,32.501518 
	C118.625618,30.709938 126.316391,29.310602 133.925308,29.108171 
	C145.700241,28.794905 157.540283,29.225813 169.291077,30.136415 
	C184.195847,31.291426 198.508728,35.308208 212.075500,41.613598 
	C218.609970,44.650600 224.788773,48.443581 231.251923,51.645401 
	C241.676865,56.809902 251.811569,55.918224 261.805878,50.069733 
	C277.878113,40.664551 294.623291,32.980278 313.455658,30.937941 
	C317.999756,30.445135 322.510498,29.644316 327.865540,29.155369 
	C330.457306,29.564325 332.229218,30.059031 333.981232,29.996405 
	C340.698303,29.756300 347.408966,29.337273 354.122040,28.985014 
	C360.759918,29.973965 367.480713,30.586460 374.019012,32.027332 
	C389.376617,35.411781 403.544464,41.537697 417.269287,49.436493 
	C441.950409,63.640747 458.932922,84.598099 471.432648,109.297600 
	C478.148102,122.567345 483.313965,136.825226 484.997253,151.892960 
	C486.507446,165.411209 488.681976,178.970230 488.675446,192.510376 
	C488.669006,205.890839 487.639008,219.582428 484.615295,232.568771 
	C481.054993,247.859848 475.437469,262.763306 469.670898,277.425415 
	C462.964935,294.476044 452.459198,309.541626 441.843597,324.341888 
	C435.377289,333.357269 427.946808,341.744385 420.402344,349.908112 
	C409.585205,361.613129 398.644806,373.255371 387.057343,384.182495 
	C375.954498,394.652649 364.118896,404.371155 352.310699,414.060944 
	C340.122437,424.062622 327.853760,434.008392 315.119659,443.291901 
	C300.117676,454.228790 284.658356,464.548035 269.229706,474.884888 
	C263.490417,478.730133 257.151947,481.671417 251.318481,485.388672 
	C246.396057,488.525330 241.701614,487.431671 237.504761,484.759705 
	C221.815552,474.771118 205.913544,465.035522 190.878906,454.120300 
	C171.383301,439.966339 152.478836,424.978149 133.637238,409.951172 
	C123.136093,401.576080 113.119919,392.568359 103.177734,383.524139 
	C93.911827,375.095123 84.544846,366.686066 76.117226,357.451538 
	C67.122147,347.595245 58.803455,337.056580 50.875790,326.309509 
	C43.001560,315.634918 35.469433,304.634430 28.699652,293.235016 
	C16.996004,273.527649 9.214459,252.212692 5.024661,229.631424 
	C3.961889,223.903534 2.834030,218.187714 1.368040,212.733185 
	C1.000000,197.312439 1.000000,181.624878 1.000002,165.468658 
M245.388016,442.028168 
	C254.677643,436.768677 264.390900,432.125732 273.156036,426.102936 
	C285.796783,417.417023 297.694061,407.655396 310.007812,398.485962 
	C329.871948,383.694153 348.874084,367.916962 366.271271,350.247620 
	C375.021820,341.360229 384.185791,332.863983 392.654724,323.720245 
	C399.515289,316.313049 405.964233,308.460815 411.986145,300.353210 
	C427.218292,279.845184 439.514069,257.837799 445.658356,232.720062 
	C448.906860,219.440262 450.519775,205.999023 450.925049,192.402512 
	C451.081635,187.149033 450.093323,181.869476 450.092590,176.601746 
	C450.090698,162.840897 446.934601,149.631943 442.302826,136.910797 
	C433.891388,113.808533 420.306793,94.368965 399.295563,80.775925 
	C385.687073,71.972061 370.760040,66.649368 354.693329,65.096695 
	C346.744141,64.328499 338.607635,64.383659 330.651520,65.111397 
	C322.456207,65.861000 313.880798,66.638374 306.364624,69.639755 
	C295.337708,74.043060 284.709412,79.809052 274.651031,86.165108 
	C265.589050,91.891510 256.395996,95.921379 245.620377,96.001022 
	C234.629425,96.082268 225.051941,92.331512 216.251465,85.870499 
	C197.803497,72.326660 176.966064,65.250534 154.181259,64.043945 
	C140.989029,63.345333 128.057800,65.597366 115.476921,69.298836 
	C101.436073,73.429848 89.115326,81.013100 78.049538,90.461075 
	C60.436710,105.498940 50.116131,125.374260 44.369797,147.164047 
	C39.391052,166.043167 37.371872,185.546127 39.807407,205.344025 
	C41.677830,220.548309 44.181011,235.369202 49.828167,249.776108 
	C54.512451,261.726532 59.823345,273.204620 66.559906,284.102325 
	C78.497292,303.413330 93.042465,320.666290 109.177429,336.451233 
	C125.171097,352.097961 141.459030,367.570465 158.764114,381.717316 
	C179.293442,398.499939 200.883987,414.009857 222.365891,429.586884 
	C229.188034,434.533813 237.134460,437.930267 245.388016,442.028168 
z"/>
<path fill="#F4F4F7" opacity="1.000000" stroke="none" 
	d="
M353.917053,28.588774 
	C347.408966,29.337273 340.698303,29.756300 333.981232,29.996405 
	C332.229218,30.059031 330.457306,29.564325 328.302368,29.154768 
	C329.725159,28.649454 331.538086,28.042643 333.355438,28.029032 
	C340.140198,27.978218 346.926392,28.121849 353.917053,28.588774 
z"/>
<path fill="#000000" opacity="1.000000" stroke="none" 
	d="
M244.977203,442.032227 
	C237.134460,437.930267 229.188034,434.533813 222.365891,429.586884 
	C200.883987,414.009857 179.293442,398.499939 158.764114,381.717316 
	C141.459030,367.570465 125.171097,352.097961 109.177429,336.451233 
	C93.042465,320.666290 78.497292,303.413330 66.559906,284.102325 
	C59.823345,273.204620 54.512451,261.726532 49.828167,249.776108 
	C44.181011,235.369202 41.677830,220.548309 39.807407,205.344025 
	C37.371872,185.546127 39.391052,166.043167 44.369797,147.164047 
	C50.116131,125.374260 60.436710,105.498940 78.049538,90.461075 
	C89.115326,81.013100 101.436073,73.429848 115.476921,69.298836 
	C128.057800,65.597366 140.989029,63.345333 154.181259,64.043945 
	C176.966064,65.250534 197.803497,72.326660 216.251465,85.870499 
	C225.051941,92.331512 234.629425,96.082268 245.620377,96.001022 
	C256.395996,95.921379 265.589050,91.891510 274.651031,86.165108 
	C284.709412,79.809052 295.337708,74.043060 306.364624,69.639755 
	C313.880798,66.638374 322.456207,65.861000 330.651520,65.111397 
	C338.607635,64.383659 346.744141,64.328499 354.693329,65.096695 
	C370.760040,66.649368 385.687073,71.972061 399.295563,80.775925 
	C420.306793,94.368965 433.891388,113.808533 442.302826,136.910797 
	C446.934601,149.631943 450.090698,162.840897 450.092590,176.601746 
	C450.093323,181.869476 451.081635,187.149033 450.925049,192.402512 
	C450.519775,205.999023 448.906860,219.440262 445.658356,232.720062 
	C439.514069,257.837799 427.218292,279.845184 411.986145,300.353210 
	C405.964233,308.460815 399.515289,316.313049 392.654724,323.720245 
	C384.185791,332.863983 375.021820,341.360229 366.271271,350.247620 
	C348.874084,367.916962 329.871948,383.694153 310.007812,398.485962 
	C297.694061,407.655396 285.796783,417.417023 273.156036,426.102936 
	C264.390900,432.125732 254.677643,436.768677 244.977203,442.032227 
M344.458649,113.011581 
	C336.977631,109.841324 326.268951,113.648468 322.991516,118.144638 
	C315.043457,129.048248 319.719360,144.648483 332.197754,149.191315 
	C336.528534,150.767944 340.827118,153.117691 344.369080,156.046951 
	C354.658417,164.556458 359.989014,175.960770 362.015045,189.021576 
	C363.605316,199.273315 372.794647,206.829300 382.707550,205.935425 
	C393.666687,204.947205 401.460388,197.154465 400.613708,186.135620 
	C399.920715,177.117111 397.079254,168.031494 393.813812,159.502625 
	C389.881897,149.232986 383.915833,139.925278 375.950378,132.063980 
	C367.164520,123.393074 358.078735,115.281204 344.458649,113.011581 
z"/>
<path fill="#9CA0AA" opacity="1.000000" stroke="none" 
	d="
M344.894745,113.012161 
	C358.078735,115.281204 367.164520,123.393074 375.950378,132.063980 
	C383.915833,139.925278 389.881897,149.232986 393.813812,159.502625 
	C397.079254,168.031494 399.920715,177.117111 400.613708,186.135620 
	C401.460388,197.154465 393.666687,204.947205 382.707550,205.935425 
	C372.794647,206.829300 363.605316,199.273315 362.015045,189.021576 
	C359.989014,175.960770 354.658417,164.556458 344.369080,156.046951 
	C340.827118,153.117691 336.528534,150.767944 332.197754,149.191315 
	C319.719360,144.648483 315.043457,129.048248 322.991516,118.144638 
	C326.268951,113.648468 336.977631,109.841324 344.894745,113.012161 
z"/>
</svg>